<svg id="light-horizontal" xmlns="http://www.w3.org/2000/svg" xmlns:xlink="http://www.w3.org/1999/xlink" viewBox="0 0 1506.78 160.94"><defs><linearGradient id="linear-gradient" x1="583.96" y1="649.06" x2="583.96" y2="789.78" gradientUnits="userSpaceOnUse"><stop offset="0" stop-color="#ee1824"/><stop offset="1" stop-color="#790a0f"/></linearGradient></defs><title>MFX-horiz-light</title><g id="Layer_1_copy_2" data-name="Layer 1 copy 2"><polygon points="507.4 10.29 507.4 118.7 493.01 118.7 493.01 39.7 456.72 118.7 447.49 118.7 411.04 39.7 411.04 118.7 396.8 118.7 396.8 10.29 411.35 10.29 452.18 99.15 492.85 10.29 507.4 10.29" fill="#2a2a2a"/><path d="M962.89,757q-11.8-12.21-11.81-32.08t12.36-32.14q12.36-12.29,31-12.29t31,12.29q12.36,12.27,12.36,32.07t-12.91,32.07q-12.9,12.27-31.52,12.28T962.89,757m30.43.46a28.79,28.79,0,0,0,20.88-8.68q8.85-8.68,8.84-24t-8.44-23.94A27.74,27.74,0,0,0,994,692.2a26.7,26.7,0,0,0-20.25,8.6q-8.14,8.61-8.14,24t7.82,24A25.67,25.67,0,0,0,993.32,757.43Z" transform="translate(-420.68 -649.06)" fill="#2a2a2a"/><path d="M1075,681.87v14.55q7.66-16,26.12-16v14.87h-3.75q-11,0-16.66,5.71T1075,720.83v46.93h-14.24V681.87Z" transform="translate(-420.68 -649.06)" fill="#2a2a2a"/><path d="M1151.64,756.18h11.74v11.58H1149q-22.37,0-22.37-22.06V693.45H1115.5V681.87h11.11V660.59H1141v21.28h22.21v11.58H1141V745.7q0,5.79,2.34,8.14t8.29,2.34" transform="translate(-420.68 -649.06)" fill="#2a2a2a"/><path d="M1242.62,748.2q8.52-8.76,8.52-23.31t-8.52-23.31a27.6,27.6,0,0,0-20.5-8.76,28.07,28.07,0,0,0-20.49,8.45q-8.54,8.44-8.53,23t8.61,23.62q8.6,9.08,20.49,9.08a27.51,27.51,0,0,0,20.42-8.77m-23.08,21a38.32,38.32,0,0,1-29.25-12.6q-11.74-12.59-11.74-32.22t11.66-31.76q11.65-12.12,29.33-12.13a35.16,35.16,0,0,1,19.16,5.17,33.74,33.74,0,0,1,12.44,13.45V681.87h14.4V770q0,17.67-11.43,28.86T1225.17,810q-17.52,0-29-8.14t-13.06-21.27H1197q2,7.35,9.55,12.2t18.61,4.85a25.43,25.43,0,0,0,18.54-7.27q7.43-7.29,7.43-20.42V750.24a34.1,34.1,0,0,1-12.44,13.69A34.86,34.86,0,0,1,1219.54,769.17Z" transform="translate(-420.68 -649.06)" fill="#2a2a2a"/><path d="M1329.52,769.17a38.32,38.32,0,0,1-29.25-12.6q-11.74-12.59-11.74-32.22t11.66-31.76q11.65-12.12,29.33-12.13a35.21,35.21,0,0,1,19.17,5.17,33.78,33.78,0,0,1,12.43,13.45V681.87h14.4v85.89h-14.4V750.24a34.15,34.15,0,0,1-12.43,13.69,34.92,34.92,0,0,1-19.17,5.24m23.08-21q8.52-8.76,8.52-23.31t-8.52-23.31a27.6,27.6,0,0,0-20.5-8.76,28.08,28.08,0,0,0-20.49,8.45q-8.53,8.44-8.53,23t8.61,23.62q8.6,9.08,20.49,9.08A27.51,27.51,0,0,0,1352.6,748.2Z" transform="translate(-420.68 -649.06)" fill="#2a2a2a"/><path d="M1462.58,748.2q8.52-8.76,8.52-23.31t-8.52-23.31a27.6,27.6,0,0,0-20.5-8.76,28.08,28.08,0,0,0-20.49,8.45q-8.52,8.44-8.53,23t8.61,23.62q8.6,9.08,20.49,9.08a27.51,27.51,0,0,0,20.42-8.77m-23.08,21a38.32,38.32,0,0,1-29.25-12.6q-11.74-12.59-11.74-32.22t11.66-31.76q11.65-12.12,29.33-12.13a35.21,35.21,0,0,1,19.17,5.17,33.78,33.78,0,0,1,12.43,13.45V681.87h14.4V770q0,17.67-11.42,28.86T1445.13,810q-17.52,0-29-8.14t-13.06-21.27H1417q2,7.35,9.55,12.2t18.61,4.85a25.43,25.43,0,0,0,18.54-7.27q7.44-7.29,7.43-20.42V750.24a34.15,34.15,0,0,1-12.43,13.69A34.92,34.92,0,0,1,1439.5,769.17Z" transform="translate(-420.68 -649.06)" fill="#2a2a2a"/><path d="M1577.18,719.42q-.17-12.36-7.83-19.79a26.25,26.25,0,0,0-19-7.43q-11.34,0-18.85,7.27t-8.29,19.95Zm-27.07,49.75q-18.46,0-30-12.2t-11.57-32.23q0-20,11.73-32.15t30.43-12.13q18.69,0,30,11.5T1592,721.3a53.07,53.07,0,0,1-.63,8.44h-68.36q.62,12.84,8,20.26t19,7.43q8.76,0,14.78-3.91a23.21,23.21,0,0,0,8.84-10.32h15.33a39.39,39.39,0,0,1-14,18.61Q1565.13,769.16,1550.11,769.17Z" transform="translate(-420.68 -649.06)" fill="#2a2a2a"/><polygon points="1194.2 118.7 1194.2 9.51 1261.78 9.51 1261.78 26.4 1216.26 26.4 1216.26 55.03 1250.99 55.03 1250.99 71.93 1216.26 71.93 1216.26 118.7 1194.2 118.7" fill="#2a2a2a"/><rect x="1284.31" y="9.51" width="22.06" height="109.2" fill="#2a2a2a"/><path d="M1813.09,717.38a18.87,18.87,0,0,0-6.33-13.76,20.7,20.7,0,0,0-14.16-5.16,19.54,19.54,0,0,0-13.84,5.16q-5.57,5.16-6.65,13.76ZM1792.29,769q-18.93,0-30.82-12.28t-11.89-32.46q0-20.19,12-32.31t31-12.12q19,0,31.21,11.81t12.21,31.52a53.2,53.2,0,0,1-.63,8.45h-63.2a20.58,20.58,0,0,0,6.25,13.61,19.49,19.49,0,0,0,13.93,5.16q11.42,0,16.89-9.38H1833a38,38,0,0,1-14.55,20.18Q1807.63,769,1792.29,769Z" transform="translate(-420.68 -649.06)" fill="#2a2a2a"/><polygon points="1506.78 32.03 1478.62 74.43 1506.62 118.7 1481.9 118.7 1465.32 92.58 1449.36 118.7 1427.15 118.7 1455.15 76.46 1427.15 32.03 1451.87 32.03 1468.45 58.32 1484.41 32.03 1506.78 32.03" fill="#2a2a2a"/></g><path d="M630.09,742.86h0l-23.42-23.43,0,0,0,0v0L583.24,696v0l0,0-23.43-23.42v0h0l0,0-23.43-23.42-7.57,7.57L513,672.5h0l23.43,23.43,0,0,23.43,23.43,0,0,23.44,23.45h0l23.43,23.43,0,0,23.44,23.45,23.38-23.45h0l0,0-23.42-23.42Zm93.73,0v0l0,0-23.43-23.42,0,0,0,0v0L677,696v0l0,0-23.43-23.42v0h0l0,0-23.43-23.42-7.57,7.57L606.77,672.5h0l23.43,23.43,0,0,23.43,23.43,0,0L677,742.88h0l23.43,23.42,0,0,23.44,23.45,23.38-23.45h0v0Zm-232.9-1.44-.08-.07.09.06Zm46.82,0h0L514.33,718v0h0l-23.43-23.43-7.57,7.57L467.5,718l-23.42,23.43h0v0l-23.42,23.42v0h0l23.38,23.45,23.44-23.45,0,0,23.42-23.41,23.41,23.41,0,0,23.44,23.45,23.38-23.45h0v0l-23.42-23.42Z" transform="translate(-420.68 -649.06)" fill="url(#linear-gradient)"/></svg>