<?xml version="1.0" encoding="utf-8"?>
<!-- Generator: Adobe Illustrator 19.0.1, SVG Export Plug-In . SVG Version: 6.00 Build 0)  -->
<svg version="1.1" id="Layer_1" xmlns="http://www.w3.org/2000/svg" xmlns:xlink="http://www.w3.org/1999/xlink" x="0px" y="0px"
	 viewBox="-240 317 130 160" style="enable-background:new -240 317 130 160;" xml:space="preserve">
<style type="text/css">
	.st0{fill:#250E62;}
	.st1{fill:#C8102E;}
	.st2{fill:#990033;}
</style>
<g>
	<g>
		<g>
			<g>
				<path class="st0" d="M-225.1,473.2l-2-3h-1.6v3h-2v-9.3h4.2c2.2,0,3.5,1.2,3.5,3.1v0c0,1.5-0.8,2.4-2,2.9l2.3,3.3H-225.1z
					 M-225,467.1c0-0.9-0.6-1.3-1.6-1.3h-2v2.7h2.1C-225.6,468.4-225,467.9-225,467.1L-225,467.1z"/>
				<path class="st0" d="M-219.3,473.2v-9.3h7v1.8h-5v1.9h4.4v1.8h-4.4v1.9h5v1.8H-219.3z"/>
				<path class="st0" d="M-201.7,473.2l-0.8-2.1h-3.9l-0.8,2.1h-2.1l3.9-9.3h1.9l3.9,9.3H-201.7z M-204.5,466.3l-1.2,3h2.5
					L-204.5,466.3z"/>
				<path class="st0" d="M-196.3,473.2v-9.3h2v7.4h4.6v1.9H-196.3z"/>
				<path class="st0" d="M-180.5,473.2v-9.3h7v1.8h-5v1.9h4.4v1.8h-4.4v1.9h5v1.8H-180.5z"/>
				<path class="st0" d="M-166.5,473.3c-1.4,0-2.8-0.5-3.9-1.5l1.2-1.4c0.8,0.7,1.7,1.1,2.8,1.1c0.8,0,1.3-0.3,1.3-0.9v0
					c0-0.5-0.3-0.8-1.9-1.2c-1.9-0.5-3.1-1-3.1-2.8v0c0-1.7,1.3-2.8,3.2-2.8c1.3,0,2.5,0.4,3.4,1.2l-1.1,1.5
					c-0.8-0.6-1.6-0.9-2.4-0.9c-0.8,0-1.2,0.4-1.2,0.8v0c0,0.6,0.4,0.8,2,1.2c1.9,0.5,2.9,1.2,2.9,2.8v0
					C-163.1,472.3-164.5,473.3-166.5,473.3z"/>
				<path class="st0" d="M-155.3,465.8v7.4h-2v-7.4h-2.8v-1.9h7.7v1.9H-155.3z"/>
				<path class="st0" d="M-142.1,473.2l-0.8-2.1h-3.9l-0.8,2.1h-2.1l3.9-9.3h1.9l3.9,9.3H-142.1z M-145,466.3l-1.2,3h2.5L-145,466.3
					z"/>
				<path class="st0" d="M-132.6,465.8v7.4h-2v-7.4h-2.8v-1.9h7.7v1.9H-132.6z"/>
				<path class="st0" d="M-126.4,473.2v-9.3h7v1.8h-5v1.9h4.4v1.8h-4.4v1.9h5v1.8H-126.4z"/>
			</g>
			<g>
				<g>
					<path class="st0" d="M-230.7,442.4v-37.9h28.6v7.4h-20.3v7.7h17.9v7.4h-17.9v8h20.6v7.4H-230.7z"/>
				</g>
				<path class="st0" d="M-165.1,438.3l-3.2-4.7l-3.2-4.7c4.8-1.8,8.1-5.6,8.1-11.8V417c0-7.8-5.4-12.5-14.3-12.5h-17.3v34.6
					c0,2.6,2.1,3.4,4.6,3.4h3.7v-1.9v-5.4v-4.8h6.6l6.7,10.1l0.1,0.2c0.8,1.2,2.2,1.9,3.7,1.9h7.3L-165.1,438.3z M-171.9,417.6
					c0,3.2-2.3,5.4-6.4,5.4h-8.4V412h8.3c4.1,0,6.6,1.8,6.6,5.4V417.6z"/>
				<path class="st0" d="M-135.5,404.5h-7.6l-12.3,28.9l-2.7,6.3l-1.1,2.7h5.3c1.9,0,3.6-1.2,4.3-2.8l0,0l2.3-5.6h15.9l3.4,8.5h8.7
					L-135.5,404.5z M-144.4,426.5l5-12.2l5,12.2H-144.4z"/>
			</g>
		</g>
		<g>
			<rect x="-230.7" y="449.4" class="st1" width="111.4" height="7.6"/>
			<g>
				<polygon class="st1" points="-237.4,401 -175,372.8 -175,320.7 -237.4,365.6 				"/>
			</g>
			<g>
				<polygon class="st2" points="-112.6,401 -175,372.8 -175,320.7 -112.6,365.6 				"/>
			</g>
		</g>
	</g>
	<g>
		<path class="st0" d="M-126.3,407.2L-126.3,407.2c0-1.4,1.2-2.6,2.6-2.6c1.5,0,2.6,1.2,2.6,2.6v0c0,1.4-1.2,2.6-2.6,2.6
			C-125.1,409.8-126.3,408.7-126.3,407.2z M-121.4,407.2L-121.4,407.2c0-1.3-1-2.3-2.3-2.3c-1.3,0-2.3,1.1-2.3,2.3v0
			c0,1.3,1,2.3,2.3,2.3C-122.4,409.6-121.4,408.5-121.4,407.2z M-124.8,405.8h1.3c0.4,0,0.7,0.1,0.9,0.3c0.2,0.2,0.2,0.4,0.2,0.6v0
			c0,0.4-0.2,0.7-0.6,0.8l0.7,1h-0.9l-0.6-0.8h0h-0.3v0.8h-0.8V405.8z M-123.5,407.1c0.3,0,0.4-0.1,0.4-0.3v0c0-0.2-0.2-0.3-0.4-0.3
			h-0.5v0.7H-123.5z"/>
	</g>
</g>
</svg>
