<svg xmlns="http://www.w3.org/2000/svg" viewBox="0 0 1506.78 160.94"><title>Asset 6</title><g id="Layer_2" data-name="Layer 2"><g id="light-all-horizantal"><polygon points="507.4 10.29 507.4 118.7 493.01 118.7 493.01 39.7 456.72 118.7 447.49 118.7 411.04 39.7 411.04 118.7 396.8 118.7 396.8 10.29 411.35 10.29 452.18 99.15 492.85 10.29 507.4 10.29" fill="#fff"/><path d="M542.21,107.91Q530.41,95.7,530.4,75.84t12.36-32.15q12.36-12.28,31-12.28t31,12.28Q617.07,56,617.07,75.76t-12.9,32.07q-12.92,12.28-31.53,12.28t-30.43-12.2m30.43.47a28.85,28.85,0,0,0,20.89-8.68q8.84-8.69,8.84-24t-8.45-23.93a27.74,27.74,0,0,0-20.58-8.61,26.71,26.71,0,0,0-20.25,8.61q-8.15,8.59-8.14,24t7.82,24A25.68,25.68,0,0,0,572.64,108.38Z" fill="#fff"/><path d="M654.31,32.82V47.37q7.66-16,26.12-16V46.27h-3.75Q665.73,46.27,660,52t-5.71,19.79V118.7H640.07V32.82Z" fill="#fff"/><path d="M731,107.13H742.7V118.7H728.31q-22.38,0-22.37-22.06V44.39H694.83V32.82h11.11V11.54h14.39V32.82h22.21V44.39H720.33V96.64q0,5.79,2.34,8.14c1.57,1.56,4.33,2.35,8.3,2.35" fill="#fff"/><path d="M821.94,99.15q8.52-8.76,8.52-23.31t-8.52-23.31a27.6,27.6,0,0,0-20.5-8.76A28.07,28.07,0,0,0,781,52.21q-8.52,8.46-8.53,23T781,98.84q8.6,9.06,20.49,9.07a27.5,27.5,0,0,0,20.42-8.76m-23.08,21a38.34,38.34,0,0,1-29.25-12.59q-11.75-12.6-11.74-32.23t11.66-31.76q11.65-12.12,29.33-12.12A35.29,35.29,0,0,1,818,36.57,33.81,33.81,0,0,1,830.46,50V32.82h14.4v88.07q0,17.69-11.42,28.87t-29,11.18q-17.52,0-29-8.13t-13.06-21.28h13.92q2,7.35,9.55,12.2t18.61,4.85A25.43,25.43,0,0,0,823,141.31q7.44-7.27,7.43-20.42V101.18A34.08,34.08,0,0,1,818,114.87,34.92,34.92,0,0,1,798.86,120.11Z" fill="#fff"/><path d="M908.84,120.11a38.34,38.34,0,0,1-29.25-12.59q-11.73-12.6-11.73-32.23t11.65-31.76q11.65-12.12,29.33-12.12A35.29,35.29,0,0,1,928,36.57,33.81,33.81,0,0,1,940.44,50V32.82h14.4V118.7h-14.4V101.18A34.08,34.08,0,0,1,928,114.87a34.92,34.92,0,0,1-19.17,5.24m23.08-21q8.52-8.76,8.52-23.31t-8.52-23.31a27.6,27.6,0,0,0-20.5-8.76,28.07,28.07,0,0,0-20.49,8.44q-8.52,8.46-8.53,23T891,98.84q8.6,9.06,20.49,9.07A27.5,27.5,0,0,0,931.92,99.15Z" fill="#fff"/><path d="M1041.9,99.15q8.52-8.76,8.53-23.31t-8.53-23.31a27.58,27.58,0,0,0-20.5-8.76,28.09,28.09,0,0,0-20.49,8.44q-8.52,8.46-8.52,23t8.6,23.63q8.61,9.06,20.49,9.07a27.49,27.49,0,0,0,20.42-8.76m-23.08,21a38.34,38.34,0,0,1-29.25-12.59q-11.73-12.6-11.73-32.23t11.65-31.76q11.65-12.12,29.33-12.12A35.29,35.29,0,0,1,1038,36.57,33.91,33.91,0,0,1,1050.43,50V32.82h14.39v88.07q0,17.69-11.42,28.87t-28.94,11.18q-17.52,0-29-8.13t-13.07-21.28H996.3q2,7.35,9.54,12.2t18.62,4.85a25.42,25.42,0,0,0,18.53-7.27q7.44-7.27,7.44-20.42V101.18A34.18,34.18,0,0,1,1038,114.87,34.92,34.92,0,0,1,1018.82,120.11Z" fill="#fff"/><path d="M1156.5,70.36q-.16-12.36-7.83-19.79a26.24,26.24,0,0,0-19-7.43q-11.36,0-18.85,7.27t-8.3,20Zm-27.07,49.75q-18.47,0-30-12.2t-11.57-32.23q0-20,11.73-32.15T1130,31.41q18.69,0,30,11.5t11.34,29.33a53.29,53.29,0,0,1-.63,8.45h-68.36q.62,12.82,8.05,20.26t19,7.43q8.76,0,14.78-3.91a23.17,23.17,0,0,0,8.84-10.33h15.34a39.44,39.44,0,0,1-14,18.62Q1144.45,120.11,1129.43,120.11Z" fill="#fff"/><polygon points="1194.2 118.7 1194.2 9.51 1261.78 9.51 1261.78 26.4 1216.26 26.4 1216.26 55.03 1250.99 55.03 1250.99 71.93 1216.26 71.93 1216.26 118.7 1194.2 118.7" fill="#fff"/><rect x="1284.31" y="9.51" width="22.06" height="109.2" fill="#fff"/><path d="M1392.42,68.33q-.48-8.61-6.34-13.77a20.7,20.7,0,0,0-14.16-5.16,19.54,19.54,0,0,0-13.84,5.16,21.87,21.87,0,0,0-6.65,13.77ZM1371.61,120q-18.93,0-30.82-12.29T1328.9,75.21q0-20.17,12-32.3t31-12.13q19,0,31.21,11.81t12.21,31.53a53.29,53.29,0,0,1-.63,8.45h-63.2a20.56,20.56,0,0,0,6.26,13.6q5.46,5.17,13.92,5.17,11.42,0,16.9-9.39h23.77a38,38,0,0,1-14.54,20.18Q1386.94,120,1371.61,120Z" fill="#fff"/><polygon points="1506.78 32.03 1478.62 74.43 1506.62 118.7 1481.9 118.7 1465.32 92.58 1449.36 118.7 1427.15 118.7 1455.15 76.46 1427.15 32.03 1451.87 32.03 1468.45 58.32 1484.41 32.03 1506.78 32.03" fill="#fff"/><path d="M209.41,93.81l0,0L186,70.36l-.05,0,0,0h0L162.56,46.92v0h0L139.16,23.46h0L115.76,0l-7.57,7.57L92.35,23.44l0,0,23.43,23.43,0,0,23.43,23.43,0,0,23.44,23.44h0L186,117.25l0,0,23.44,23.44,23.38-23.44,0,0h0L209.4,93.82Zm93.73,0h0l0,0L279.74,70.36l-.05,0,0,0,0,0L256.3,46.92v0h0L232.9,23.46l0,0h0L209.5,0l-7.57,7.57L186.09,23.45h0L209.5,46.89l0,0L232.9,70.35l0,0,23.44,23.44h0l23.43,23.43,0,0,23.44,23.44,23.38-23.44,0,0h0ZM70.24,92.38l-.07-.07.08.06Zm46.82,0,0,0L93.65,68.94h0l0,0L70.25,45.48l-7.57,7.57L46.82,68.94,23.4,92.37v0h0L0,115.83H0v0L23.41,139.3l23.44-23.44,0,0L70.24,92.42l23.41,23.41,0,0,23.44,23.44,23.38-23.44,0,0h0L117.05,92.4Z" fill="#fff"/></g></g></svg>