<svg xmlns="http://www.w3.org/2000/svg" xmlns:xlink="http://www.w3.org/1999/xlink" viewBox="0 0 445.321 47.535">
  <defs>
    <style>
      .cls-1 {
        fill: #812dd5;
      }

      .cls-2 {
        fill: url(#linear-gradient);
      }
    </style>
    <linearGradient id="linear-gradient" x1="0.595" y1="0.887" x2="0.318" y2="-0.645" gradientUnits="objectBoundingBox">
      <stop offset="0" stop-color="#9859ce"/>
      <stop offset="1" stop-color="#42296d"/>
    </linearGradient>
  </defs>
  <g id="mfx-horiz-purple-light" transform="translate(0.02 -0.1)">
    <g id="Layer_1_copy_2" data-name="Layer 1 copy 2" transform="translate(117.257 2.881)">
      <path id="Path_1" data-name="Path 1" class="cls-1" d="M429.487,10.29V42.33h-4.253V18.982L414.509,42.33h-2.728L401.008,18.982V42.33H396.8V10.29h4.3l12.067,26.262,12.02-26.262Z" transform="translate(-396.8 -10.059)"/>
      <path id="Path_2" data-name="Path 2" class="cls-1" d="M954.57,703.1a13.078,13.078,0,0,1-3.49-9.481,12.779,12.779,0,0,1,3.653-9.5,13.371,13.371,0,0,1,18.323,0,12.767,12.767,0,0,1,3.653,9.478,12.478,12.478,0,0,1-3.815,9.478,13.022,13.022,0,0,1-9.315,3.629,12,12,0,0,1-9.008-3.606m8.993.136a8.509,8.509,0,0,0,6.171-2.565,9.471,9.471,0,0,0,2.613-7.093,9.7,9.7,0,0,0-2.494-7.075,8.2,8.2,0,0,0-6.088-2.554,7.891,7.891,0,0,0-5.985,2.542,9.915,9.915,0,0,0-2.406,7.093,10.167,10.167,0,0,0,2.311,7.093,7.586,7.586,0,0,0,5.878,2.551Z" transform="translate(-911.596 -674.012)"/>
      <path id="Path_3" data-name="Path 3" class="cls-1" d="M1064.969,680.849v4.3a7.9,7.9,0,0,1,7.719-4.729v4.395h-1.108a6.64,6.64,0,0,0-4.924,1.688q-1.673,1.688-1.687,5.861v13.87h-4.208V680.849Z" transform="translate(-988.861 -673.962)"/>
      <path id="Path_4" data-name="Path 4" class="cls-1" d="M1126.181,688.841h3.47v3.422h-4.25q-6.611,0-6.611-6.52V670.3H1115.5v-3.422h3.283V660.59h4.253v6.289h6.564V670.3h-6.564v15.442a3.356,3.356,0,0,0,.692,2.406,3.407,3.407,0,0,0,2.45.692" transform="translate(-1027.423 -659.993)"/>
      <path id="Path_5" data-name="Path 5" class="cls-1" d="M1197.485,700.495a10.683,10.683,0,0,0,0-13.778,8.157,8.157,0,0,0-6.059-2.589,8.3,8.3,0,0,0-6.056,2.5,9.115,9.115,0,0,0-2.521,6.8,9.733,9.733,0,0,0,2.545,6.981,8.247,8.247,0,0,0,12.091.092m-6.821,6.206a11.325,11.325,0,0,1-8.645-3.724,13.408,13.408,0,0,1-3.47-9.522,12.978,12.978,0,0,1,3.446-9.386,11.527,11.527,0,0,1,8.668-3.585,10.392,10.392,0,0,1,5.663,1.528,9.97,9.97,0,0,1,3.676,3.975v-5.1h4.256v26.046a11.414,11.414,0,0,1-3.378,8.529,11.673,11.673,0,0,1-8.553,3.292,14.459,14.459,0,0,1-8.571-2.406,8.738,8.738,0,0,1-3.86-6.286h4.1a6.207,6.207,0,0,0,2.823,3.606,9.974,9.974,0,0,0,5.5,1.433,7.516,7.516,0,0,0,5.479-2.149,8.07,8.07,0,0,0,2.2-6.035V701.1a10.078,10.078,0,0,1-3.677,4.046,10.3,10.3,0,0,1-5.66,1.549Z" transform="translate(-1071.839 -674.005)"/>
      <path id="Path_6" data-name="Path 6" class="cls-1" d="M1300.644,706.671a11.325,11.325,0,0,1-8.645-3.724,13.408,13.408,0,0,1-3.47-9.522,12.978,12.978,0,0,1,3.446-9.386,11.527,11.527,0,0,1,8.668-3.585,10.406,10.406,0,0,1,5.666,1.528,9.984,9.984,0,0,1,3.674,3.975V680.87h4.256v25.384h-4.256v-5.178a10.093,10.093,0,0,1-3.674,4.046,10.32,10.32,0,0,1-5.666,1.549m6.821-6.206a10.683,10.683,0,0,0,0-13.778,8.157,8.157,0,0,0-6.059-2.589,8.3,8.3,0,0,0-6.056,2.5,9.13,9.13,0,0,0-2.521,6.8,9.716,9.716,0,0,0,2.545,6.981,8.257,8.257,0,0,0,12.091.1Z" transform="translate(-1149.315 -673.984)"/>
      <path id="Path_7" data-name="Path 7" class="cls-1" d="M1417.445,700.495a10.683,10.683,0,0,0,0-13.778,8.157,8.157,0,0,0-6.059-2.589,8.3,8.3,0,0,0-6.056,2.5,9.146,9.146,0,0,0-2.521,6.8,9.7,9.7,0,0,0,2.545,6.981,8.247,8.247,0,0,0,12.091.092m-6.821,6.206a11.325,11.325,0,0,1-8.645-3.724,13.408,13.408,0,0,1-3.47-9.522,12.978,12.978,0,0,1,3.446-9.386,11.527,11.527,0,0,1,8.668-3.585,10.406,10.406,0,0,1,5.666,1.528,9.985,9.985,0,0,1,3.674,3.975v-5.1h4.256v26.046a11.419,11.419,0,0,1-3.375,8.529,11.671,11.671,0,0,1-8.556,3.292,14.459,14.459,0,0,1-8.571-2.406,8.738,8.738,0,0,1-3.86-6.286h4.117a6.207,6.207,0,0,0,2.822,3.606,9.973,9.973,0,0,0,5.5,1.433,7.516,7.516,0,0,0,5.479-2.149,8.055,8.055,0,0,0,2.2-6.035V701.1a10.092,10.092,0,0,1-3.673,4.046,10.321,10.321,0,0,1-5.674,1.549Z" transform="translate(-1226.792 -674.005)"/>
      <path id="Path_8" data-name="Path 8" class="cls-1" d="M1528.826,691.974a7.936,7.936,0,0,0-2.314-5.849,8.287,8.287,0,0,0-11.186-.047,8.6,8.6,0,0,0-2.45,5.9Zm-8,14.7a11.65,11.65,0,0,1-8.866-3.606,13.323,13.323,0,0,1-3.419-9.525,13.1,13.1,0,0,1,3.467-9.5,12.186,12.186,0,0,1,21.2,8.485,15.67,15.67,0,0,1-.186,2.494h-20.2a8.747,8.747,0,0,0,2.364,5.988,7.588,7.588,0,0,0,5.615,2.2,7.853,7.853,0,0,0,4.368-1.156,6.86,6.86,0,0,0,2.613-3.05h4.531a11.642,11.642,0,0,1-4.138,5.5,11.941,11.941,0,0,1-7.344,2.175Z" transform="translate(-1304.304 -673.991)"/>
      <path id="Path_9" data-name="Path 9" class="cls-1" d="M1194.2,41.78V9.51h19.973V14.5H1200.72v8.461h10.264v4.995H1200.72V41.78Z" transform="translate(-958.536 -9.51)"/>
      <rect id="Rectangle_3" data-name="Rectangle 3" class="cls-1" width="6.52" height="32.273" transform="translate(262.296)"/>
      <path id="Path_10" data-name="Path 10" class="cls-1" d="M1768.35,690.927a5.577,5.577,0,0,0-1.871-4.067,6.118,6.118,0,0,0-4.185-1.525,5.775,5.775,0,0,0-4.09,1.525,6.428,6.428,0,0,0-1.965,4.067Zm-6.147,15.256a12.115,12.115,0,0,1-9.109-3.629,13.207,13.207,0,0,1-3.514-9.593,12.978,12.978,0,0,1,3.546-9.549,12.332,12.332,0,0,1,9.162-3.582,12.72,12.72,0,0,1,9.224,3.49,12.363,12.363,0,0,1,3.608,9.315,15.721,15.721,0,0,1-.186,2.5h-18.678a6.082,6.082,0,0,0,1.847,4.022,5.76,5.76,0,0,0,4.117,1.525,5.382,5.382,0,0,0,4.992-2.772h7.022a11.23,11.23,0,0,1-4.3,5.964A12.844,12.844,0,0,1,1762.2,706.183Z" transform="translate(-1474.106 -673.547)"/>
      <path id="Path_11" data-name="Path 11" class="cls-1" d="M1450.684,32.03l-8.322,12.531,8.275,13.084h-7.306l-4.9-7.72-4.717,7.72h-6.564l8.275-12.484L1427.15,32.03h7.306l4.9,7.77,4.717-7.77Z" transform="translate(-1122.639 -25.374)"/>
    </g>
    <path id="Path_12" data-name="Path 12" class="cls-2" d="M482.555,676.852h0l-6.922-6.924h0L468.709,663h0l-6.925-6.922h0l-6.924-6.922-2.237,2.237-4.673,4.661h0l6.925,6.924h0l6.924,6.924h0l6.927,6.93h0l6.924,6.925h0l6.927,6.93,6.91-6.93h0l-6.922-6.922Zm27.7,0h0l-6.925-6.922h0L496.419,663h0l-6.925-6.922h0l-6.924-6.922-2.237,2.237-4.67,4.661h0l6.925,6.924h0l6.925,6.924h0l6.907,6.951h0l6.924,6.922h0l6.927,6.93,6.91-6.93h0Zm-68.831-.426-.024-.021.027.018Zm13.837,0h0l-6.919-6.922h0l-6.925-6.924-2.237,2.237-4.678,4.687-6.922,6.924h0l-6.922,6.922h0l6.91,6.93,6.927-6.93h0l6.922-6.919,6.919,6.919h0l6.927,6.93,6.91-6.93h0l-6.922-6.922Z" transform="translate(-420.68 -649.06)"/>
  </g>
</svg>
