<svg xmlns="http://www.w3.org/2000/svg" xmlns:xlink="http://www.w3.org/1999/xlink" viewBox="0 0 1967.44 723.47"><defs><linearGradient id="linear-gradient" x1="1200" y1="358.27" x2="1200" y2="658.29" gradientUnits="userSpaceOnUse"><stop offset="0" stop-color="#ee1824"/><stop offset="1" stop-color="#790a0f"/></linearGradient></defs><title>Justthelogo2a2a2a</title><g id="Layer_1" data-name="Layer 1"><polygon points="196.05 456.43 196.05 648.6 170.54 648.6 170.54 508.56 106.2 648.6 89.84 648.6 25.23 508.56 25.23 648.6 0 648.6 0 456.43 25.79 456.43 98.16 613.93 170.26 456.43 196.05 456.43" style="fill:#2a2a2a"/><path d="M474,987.73q-20.94-21.63-20.94-56.84t21.91-57q21.92-21.76,54.9-21.77t54.91,21.77q21.9,21.76,21.91,56.85t-22.88,56.84Q561,1009.36,528,1009.36T474,987.73m53.93.83q21.36,0,37-15.39t15.67-42.56q0-27.18-15-42.43a49.14,49.14,0,0,0-36.46-15.25q-21.5,0-35.91,15.25t-14.42,42.57q0,27.32,13.87,42.56T528,988.56Z" transform="translate(-216.28 -358.27)" style="fill:#2a2a2a"/><path d="M672.71,854.63v25.79Q686.3,852.13,719,852.13v26.34h-6.65q-19.41,0-29.53,10.13t-10.13,35.07v83.19H647.48V854.63Z" transform="translate(-216.28 -358.27)" style="fill:#2a2a2a"/><path d="M808.59,986.34h20.8v20.52H803.88q-39.66,0-39.65-39.1V875.15h-19.7V854.63h19.7V816.91h25.51v37.72h39.37v20.52H789.74v92.61q0,10.26,4.15,14.42t14.7,4.16" transform="translate(-216.28 -358.27)" style="fill:#2a2a2a"/><path d="M969.84,972.2q15.1-15.53,15.11-41.31t-15.11-41.32Q954.72,874,933.51,874a49.75,49.75,0,0,0-36.32,15q-15.12,15-15.11,40.77t15.25,41.87q15.24,16.08,36.32,16.08t36.19-15.53m-40.9,37.16q-31.07,0-51.86-22.32t-20.79-57.12q0-34.81,20.65-56.3t52-21.49q19.41,0,34,9.15a60,60,0,0,1,22,23.85v-30.5h25.51v156.12q0,31.32-20.24,51.15t-51.3,19.83q-31,0-51.44-14.42t-23.15-37.71H889q3.6,13,16.91,21.63t33,8.59q19.7,0,32.86-12.89T985,1010.75V975.81a60.47,60.47,0,0,1-22,24.26Q948.35,1009.36,928.94,1009.36Z" transform="translate(-216.28 -358.27)" style="fill:#2a2a2a"/><path d="M1123.88,1009.36q-31.05,0-51.86-22.32t-20.79-57.12q0-34.81,20.66-56.3t52-21.49q19.41,0,34,9.15a60,60,0,0,1,22,23.85v-30.5h25.52v152.23h-25.52V975.81a60.47,60.47,0,0,1-22,24.26q-14.56,9.28-34,9.29m40.9-37.16q15.12-15.53,15.11-41.31t-15.11-41.32Q1149.68,874,1128.45,874a49.75,49.75,0,0,0-36.32,15Q1077,904,1077,929.78t15.25,41.87q15.24,16.08,36.32,16.08T1164.78,972.2Z" transform="translate(-216.28 -358.27)" style="fill:#2a2a2a"/><path d="M1359.72,972.2q15.12-15.53,15.11-41.31t-15.11-41.32Q1344.62,874,1323.39,874a49.78,49.78,0,0,0-36.32,15Q1272,904,1272,929.78t15.25,41.87q15.26,16.08,36.32,16.08t36.19-15.53m-40.9,37.16q-31,0-51.85-22.32t-20.8-57.12q0-34.81,20.66-56.3t52-21.49q19.41,0,34,9.15a60,60,0,0,1,22,23.85v-30.5h25.52v156.12q0,31.32-20.25,51.15t-51.3,19.83q-31,0-51.44-14.42t-23.15-37.71h24.68q3.6,13,16.92,21.63t33,8.59q19.7,0,32.86-12.89t13.17-36.18V975.81a60.47,60.47,0,0,1-22,24.26Q1338.23,1009.36,1318.82,1009.36Z" transform="translate(-216.28 -358.27)" style="fill:#2a2a2a"/><path d="M1562.84,921.18q-.27-21.91-13.86-35.08t-33.69-13.17q-20.11,0-33.41,12.89t-14.7,35.36Zm-48,88.18q-32.71,0-53.24-21.63t-20.52-57.12q0-35.5,20.8-57t53.93-21.49q33.14,0,53.24,20.38t20.11,52a94.79,94.79,0,0,1-1.11,15H1466.9q1.11,22.74,14.28,35.91t33.69,13.17q15.53,0,26.2-6.93a41.17,41.17,0,0,0,15.67-18.3h27.18a69.9,69.9,0,0,1-24.82,33Q1541.49,1009.35,1514.87,1009.36Z" transform="translate(-216.28 -358.27)" style="fill:#2a2a2a"/><polygon points="1413.39 648.6 1413.39 455.05 1533.18 455.05 1533.18 484.99 1452.49 484.99 1452.49 535.74 1514.05 535.74 1514.05 565.68 1452.49 565.68 1452.49 648.6 1413.39 648.6" style="fill:#2a2a2a"/><rect x="1573.11" y="455.05" width="39.1" height="193.55" style="fill:#2a2a2a"/><path d="M1981,917.57q-.83-15.24-11.23-24.4T1944.69,884q-14.7,0-24.54,9.15t-11.79,24.4Zm-36.88,91.51q-33.56,0-54.63-21.77t-21.07-57.53q0-35.78,21.21-57.27T1944.55,851q33.69,0,55.32,20.94t21.63,55.87a94.92,94.92,0,0,1-1.11,15h-112q1.38,15,11.09,24.12t24.68,9.15q20.25,0,29.95-16.64h42.15a67.51,67.51,0,0,1-25.79,35.78Q1971.3,1009.08,1944.13,1009.08Z" transform="translate(-216.28 -358.27)" style="fill:#2a2a2a"/><polygon points="1967.44 494.97 1917.52 570.12 1967.16 648.6 1923.34 648.6 1893.95 602.29 1865.67 648.6 1826.29 648.6 1875.93 573.73 1826.29 494.97 1870.1 494.97 1899.5 541.56 1927.78 494.97 1967.44 494.97" style="fill:#2a2a2a"/></g><g id="Layer_2" data-name="Layer 2"><path d="M1298.35,558.26l0,0-50-50-.1.1,0-.1,0,0-49.94-49.95,0,0,0,0-49.94-49.94,0,0h0l0,0-49.94-50-16.15,16.14-33.77,33.84,0,0,49.94,50-.06.07,50,49.95-.07.06,50,50h0l49.94,50-.06.06,50,50,49.85-50,0,0,0,0-49.94-49.94Zm199.83,0,0,0,0,0-50-50-.1.1,0-.1,0,0-49.94-49.94,0,0,0,0-49.94-49.94,0,0h0l0,0-50-50-16.14,16.14-33.79,33.84,0,0,50,50-.07.07,50,49.95-.06.06,50,50h0l49.94,50-.06.07,50,50,49.85-50,0,0,0,0Zm-496.56-3.07-.15-.15.18.13Zm99.83,0,0,0-50-49.94,0,0,0,0-49.95-49.95-16.14,16.14-33.8,33.87-50,50,0,0,0,0-50,50,0,0,0,0,49.85,50,50-50-.06-.06,49.91-49.92,49.92,49.92-.07.06,50,50,49.85-50,0,0,0,0-49.94-50Z" transform="translate(-216.28 -358.27)" style="fill:url(#linear-gradient)"/></g></svg>