<?xml version="1.0" encoding="iso-8859-1"?>
<!-- Generator: Adobe Illustrator 16.0.0, SVG Export Plug-In . SVG Version: 6.00 Build 0)  -->
<!DOCTYPE svg PUBLIC "-//W3C//DTD SVG 1.1//EN" "http://www.w3.org/Graphics/SVG/1.1/DTD/svg11.dtd">
<svg version="1.1" id="Layer_1" xmlns="http://www.w3.org/2000/svg" xmlns:xlink="http://www.w3.org/1999/xlink" x="0px" y="0px"
	 width="192.756px" height="192.756px" viewBox="0 0 192.756 192.756" style="enable-background:new 0 0 192.756 192.756;"
	 xml:space="preserve">
<g>
	<polygon style="fill-rule:evenodd;clip-rule:evenodd;fill:#FFFFFF;" points="0,0 192.756,0 192.756,192.756 0,192.756 0,0 	"/>
	<path style="fill-rule:evenodd;clip-rule:evenodd;" d="M18.022,132.896c0,0.967-0.064,1.096-1.032,1.096v0.451h3.545v-0.451
		c-1.031,0-1.095-0.129-1.095-1.031v-2.707h0.773c1.418,0,2.192-0.258,2.772-0.709c0.58-0.451,0.838-1.16,0.838-1.998
		c0-0.904-0.323-1.549-0.903-2c-0.516-0.387-1.225-0.645-2.514-0.645H16.99v0.516c0.967,0,1.032,0.129,1.032,1.031V132.896
		L18.022,132.896z M20.213,125.547c0.774,0,1.289,0.131,1.612,0.451c0.387,0.322,0.58,0.84,0.58,1.549
		c0,0.773-0.258,1.289-0.58,1.611c-0.387,0.387-1.031,0.516-1.612,0.516h-0.838v-3.418c0-0.578,0.065-0.709,0.323-0.709H20.213
		L20.213,125.547z"/>
	<path style="fill-rule:evenodd;clip-rule:evenodd;" d="M26.531,129.738l-0.064-0.838l-0.129-0.129
		c-0.58,0.322-1.16,0.516-1.74,0.58v0.322c0.58,0,0.645,0.129,0.645,0.838v2.707c0,0.773-0.064,0.838-0.645,0.838v0.387h2.707
		v-0.387c-0.709,0-0.773-0.129-0.773-0.838v-2.836c0.387-0.58,0.709-0.967,0.967-0.967c0.193,0,0.258,0.129,0.387,0.451
		s0.258,0.451,0.516,0.451c0.323,0,0.451-0.258,0.451-0.58c0-0.26-0.128-0.518-0.257-0.645c-0.194-0.193-0.387-0.258-0.709-0.258
		C27.369,128.836,26.982,129.094,26.531,129.738L26.531,129.738L26.531,129.738z"/>
	<path style="fill-rule:evenodd;clip-rule:evenodd;" d="M32.591,134.572c0.967,0,1.74-0.193,2.32-0.709
		c0.516-0.451,0.838-1.16,0.838-2.191c0-0.967-0.323-1.676-0.902-2.193c-0.581-0.449-1.29-0.643-2.256-0.643
		c-0.967,0-1.676,0.193-2.192,0.643c-0.58,0.518-0.903,1.227-0.903,2.193c0,1.031,0.323,1.74,0.903,2.191
		C30.915,134.379,31.688,134.572,32.591,134.572L32.591,134.572L32.591,134.572z M32.591,129.221c0.515,0,0.967,0.195,1.225,0.518
		c0.322,0.451,0.515,1.031,0.515,1.934c0,0.967-0.193,1.547-0.515,1.934c-0.258,0.322-0.709,0.516-1.225,0.516
		c-0.516,0-0.967-0.193-1.225-0.516c-0.322-0.387-0.516-0.967-0.516-1.934c0-0.902,0.193-1.482,0.516-1.934
		C31.624,129.416,32.075,129.221,32.591,129.221L32.591,129.221L32.591,129.221z"/>
	<path style="fill-rule:evenodd;clip-rule:evenodd;" d="M38.07,126.516c-0.451,0-0.773,0.322-0.773,0.838s0.322,0.838,0.773,0.838
		c0.387,0,0.773-0.322,0.773-0.838S38.457,126.516,38.07,126.516L38.07,126.516L38.07,126.516z M37.49,134.186
		c0,1.031-0.129,1.676-0.258,2.127c-0.193,0.451-0.451,0.58-0.709,0.58s-0.451-0.129-0.645-0.451
		c-0.193-0.387-0.322-0.58-0.708-0.58c-0.194,0-0.388,0.193-0.388,0.451s0.193,0.516,0.452,0.709
		c0.322,0.193,0.708,0.322,1.29,0.322c0.709,0,1.289-0.258,1.675-0.773c0.387-0.58,0.581-1.418,0.581-2.578V128.9l-0.194-0.129
		c-0.645,0.322-1.225,0.516-1.934,0.58v0.322c0.773,0,0.773,0.064,0.773,0.838L37.49,134.186L37.49,134.186z"/>
	<path style="fill-rule:evenodd;clip-rule:evenodd;" d="M45.483,131.672c0-0.902-0.258-1.611-0.709-2.127
		c-0.451-0.516-1.096-0.773-1.87-0.773c-0.773,0-1.417,0.258-1.933,0.707c-0.516,0.518-0.838,1.227-0.838,2.129
		c0,0.967,0.257,1.676,0.709,2.127c0.58,0.58,1.29,0.838,2.192,0.838c0.645,0,1.16-0.193,1.611-0.451
		c0.387-0.258,0.645-0.516,0.838-0.902l-0.387-0.193c-0.193,0.258-0.386,0.516-0.645,0.709c-0.387,0.193-0.773,0.322-1.161,0.322
		c-0.58,0-1.031-0.258-1.354-0.709c-0.322-0.451-0.387-1.031-0.387-1.74L45.483,131.672L45.483,131.672z M41.551,131.156
		c0-0.645,0.193-1.16,0.387-1.418c0.258-0.322,0.645-0.518,0.967-0.518c0.452,0,0.709,0.195,0.903,0.453
		c0.258,0.387,0.322,0.967,0.322,1.482H41.551L41.551,131.156z"/>
	<path style="fill-rule:evenodd;clip-rule:evenodd;" d="M51.22,133.09c-0.258,0.322-0.451,0.516-0.709,0.709
		c-0.323,0.193-0.645,0.258-1.032,0.258c-0.515,0-0.967-0.258-1.289-0.709c-0.257-0.387-0.387-0.967-0.387-1.676
		c0-0.902,0.193-1.418,0.452-1.805c0.257-0.451,0.709-0.646,1.095-0.646c0.517,0,0.774,0.258,0.903,0.646
		c0.128,0.193,0.194,0.322,0.387,0.516c0.064,0.064,0.193,0.129,0.322,0.129c0.258,0,0.451-0.193,0.451-0.516
		c0-0.258-0.193-0.518-0.516-0.709c-0.322-0.322-0.902-0.451-1.611-0.451c-0.838,0-1.612,0.193-2.128,0.773
		c-0.515,0.451-0.773,1.16-0.773,2.062s0.258,1.676,0.838,2.256c0.45,0.387,1.095,0.645,1.998,0.645
		c0.581,0,1.032-0.129,1.418-0.387c0.387-0.193,0.709-0.516,0.902-0.838L51.22,133.09L51.22,133.09z"/>
	<path style="fill-rule:evenodd;clip-rule:evenodd;" d="M52.187,129.416h0.774v3.609c0,1.225,0.773,1.547,1.611,1.547
		c0.709,0,1.226-0.193,1.677-0.516l-0.258-0.387c-0.322,0.193-0.581,0.322-0.967,0.322c-0.452,0-0.773-0.258-0.773-0.967v-3.609
		h1.675v-0.451H54.25v-1.676h-0.387c-0.323,1.16-0.709,1.676-1.74,1.74L52.187,129.416L52.187,129.416z"/>
	<path style="fill-rule:evenodd;clip-rule:evenodd;" d="M69.141,124.902l-3.03,7.672h-0.064l-3.159-7.672h-2.385v0.516
		c0.902,0,1.031,0.066,1.031,0.969v6.51c0,0.967-0.129,1.031-1.031,1.031v0.516h2.643v-0.516c-0.903,0-0.968-0.064-0.968-1.031
		v-6.447l0,0l3.288,8.059h0.516l3.159-7.992h0.064v6.445c0,0.902-0.064,1.031-0.967,1.031v0.451h3.417v-0.451
		c-0.966,0-1.031-0.129-1.031-1.031v-6.512c0-0.902,0.065-1.031,1.031-1.031v-0.451L69.141,124.902L69.141,124.902z"/>
	<path style="fill-rule:evenodd;clip-rule:evenodd;" d="M77.134,130.641c0-0.516-0.129-0.967-0.451-1.289
		c-0.322-0.387-0.774-0.516-1.74-0.516c-0.774,0-1.225,0.129-1.548,0.258c-0.451,0.258-0.709,0.58-0.709,0.902
		c0,0.258,0.129,0.516,0.452,0.516c0.387,0,0.516-0.129,0.645-0.387c0.063-0.258,0.193-0.451,0.322-0.58
		c0.193-0.129,0.387-0.258,0.773-0.258c0.323,0,0.581,0.129,0.709,0.322c0.129,0.193,0.194,0.516,0.194,0.838v0.516l-0.773,0.129
		c-0.774,0.193-1.354,0.451-1.806,0.709c-0.58,0.322-0.773,0.773-0.773,1.354c0,0.451,0.193,0.838,0.516,1.096
		c0.322,0.258,0.709,0.322,1.095,0.322c0.903,0,1.354-0.258,1.741-0.645h0.064c0.128,0.387,0.451,0.58,1.031,0.58
		c0.387,0,0.708-0.064,0.967-0.129l-0.064-0.387c-0.129,0.064-0.258,0.064-0.322,0.064c-0.258,0-0.387-0.193-0.387-0.773
		L77.134,130.641L77.134,130.641z M75.716,133.412c-0.257,0.258-0.58,0.516-1.096,0.516c-0.257,0-0.516-0.064-0.644-0.258
		c-0.13-0.193-0.258-0.387-0.258-0.709c0-0.516,0.322-0.838,0.708-1.031c0.323-0.258,0.838-0.451,1.29-0.58V133.412L75.716,133.412z
		"/>
	<path style="fill-rule:evenodd;clip-rule:evenodd;" d="M84.161,130.641c0-0.709-0.194-1.162-0.516-1.42
		c-0.258-0.256-0.709-0.385-1.29-0.385c-0.773,0-1.417,0.385-1.934,0.967h-0.064V128.9l-0.194-0.129
		c-0.515,0.322-1.16,0.449-1.805,0.58v0.322c0.709,0,0.773,0.129,0.773,0.838v2.643c0,0.773-0.064,0.902-0.773,0.902v0.387h2.643
		v-0.387c-0.58,0-0.58-0.064-0.58-0.838v-2.771c0.451-0.645,1.031-1.031,1.482-1.031c0.323,0,0.516,0.062,0.645,0.258
		c0.258,0.193,0.322,0.58,0.322,1.031v2.514c0,0.773-0.064,0.838-0.58,0.838v0.387h2.449v-0.387c-0.516,0-0.58-0.129-0.58-0.838
		V130.641L84.161,130.641z"/>
	<path style="fill-rule:evenodd;clip-rule:evenodd;" d="M90.027,130.641c0-0.516-0.064-0.967-0.387-1.289
		c-0.387-0.387-0.838-0.516-1.74-0.516c-0.774,0-1.29,0.129-1.612,0.258c-0.387,0.258-0.645,0.58-0.645,0.902
		c0,0.258,0.128,0.516,0.451,0.516c0.322,0,0.516-0.129,0.581-0.387c0.128-0.258,0.193-0.451,0.386-0.58
		c0.193-0.129,0.386-0.258,0.709-0.258c0.387,0,0.645,0.129,0.774,0.322s0.193,0.516,0.193,0.838v0.516l-0.774,0.129
		c-0.774,0.193-1.418,0.451-1.805,0.709c-0.58,0.322-0.837,0.773-0.837,1.354c0,0.451,0.257,0.838,0.516,1.096
		c0.321,0.258,0.773,0.322,1.16,0.322c0.837,0,1.354-0.258,1.74-0.645h0.064c0.129,0.387,0.387,0.58,0.967,0.58
		c0.451,0,0.709-0.064,1.031-0.129l-0.129-0.387c-0.064,0.064-0.193,0.064-0.322,0.064c-0.258,0-0.387-0.193-0.387-0.773
		L90.027,130.641L90.027,130.641z M88.673,133.412c-0.258,0.258-0.581,0.516-1.096,0.516c-0.322,0-0.516-0.064-0.645-0.258
		c-0.193-0.193-0.257-0.387-0.257-0.709c0-0.516,0.257-0.838,0.644-1.031c0.387-0.258,0.903-0.451,1.354-0.58V133.412
		L88.673,133.412z"/>
	<path style="fill-rule:evenodd;clip-rule:evenodd;" d="M93.573,133.734c-0.71,0-1.032-0.129-1.032-0.451
		c0-0.258,0.193-0.451,0.451-0.645c0.388,0.193,0.838,0.258,1.29,0.258c1.418,0,2.514-0.709,2.514-2.062
		c0-0.516-0.194-0.967-0.58-1.289l1.224,0.064v-0.645l-1.676,0.193c-0.387-0.193-0.902-0.322-1.547-0.322
		c-1.482,0-2.579,0.709-2.579,1.998c0,0.709,0.387,1.289,0.967,1.676c-0.451,0.258-0.902,0.58-0.902,1.096s0.451,0.838,0.902,0.902
		c-0.645,0.258-1.354,0.773-1.354,1.482c0,0.967,1.16,1.418,2.901,1.418c1.933,0,3.287-0.902,3.287-2.062
		c0-0.838-0.644-1.547-2.514-1.547L93.573,133.734L93.573,133.734z M94.281,132.445c-0.838,0-1.29-0.645-1.29-1.611
		c0-0.838,0.452-1.547,1.225-1.547c0.838,0,1.289,0.709,1.289,1.547C95.506,131.801,95.055,132.445,94.281,132.445L94.281,132.445
		L94.281,132.445z M94.733,134.766c1.289,0,1.611,0.451,1.611,0.902c0,0.645-0.838,1.289-2.191,1.289
		c-1.096,0-1.806-0.451-1.806-1.096c0-0.451,0.258-0.838,0.838-1.16L94.733,134.766L94.733,134.766z"/>
	<path style="fill-rule:evenodd;clip-rule:evenodd;" d="M103.436,131.672c0-0.902-0.258-1.611-0.709-2.127s-1.096-0.773-1.869-0.773
		c-0.838,0-1.42,0.258-1.936,0.707c-0.516,0.518-0.838,1.227-0.838,2.129c0,0.967,0.258,1.676,0.709,2.127
		c0.518,0.58,1.289,0.838,2.193,0.838c0.645,0,1.16-0.193,1.611-0.451c0.387-0.258,0.645-0.516,0.838-0.902l-0.387-0.193
		c-0.193,0.258-0.387,0.516-0.645,0.709c-0.387,0.193-0.773,0.322-1.162,0.322c-0.578,0-1.029-0.258-1.352-0.709
		s-0.387-1.031-0.387-1.74L103.436,131.672L103.436,131.672z M99.504,131.156c0-0.645,0.193-1.16,0.387-1.418
		c0.258-0.322,0.645-0.518,0.967-0.518c0.385,0,0.709,0.195,0.902,0.453c0.258,0.387,0.322,0.967,0.322,1.482H99.504L99.504,131.156
		z"/>
	<path style="fill-rule:evenodd;clip-rule:evenodd;" d="M112.977,130.705c0-0.709-0.131-1.096-0.389-1.418
		c-0.32-0.322-0.709-0.451-1.225-0.451c-0.838,0-1.354,0.451-1.805,0.967h-0.064c-0.064-0.324-0.258-0.516-0.451-0.709
		c-0.258-0.129-0.58-0.258-1.096-0.258c-0.709,0-1.289,0.451-1.74,0.902h-0.064V128.9l-0.193-0.064
		c-0.516,0.258-1.16,0.451-1.74,0.516v0.387c0.645,0,0.709,0.064,0.709,0.838v2.643c0,0.773-0.064,0.838-0.709,0.838v0.387h2.578
		v-0.387c-0.516,0-0.58-0.064-0.58-0.773v-2.9c0.451-0.645,0.838-0.967,1.289-0.967c0.258,0,0.451,0.129,0.58,0.322
		c0.129,0.258,0.193,0.58,0.193,1.096v2.449c0,0.709-0.064,0.773-0.58,0.773v0.387h2.449v-0.387c-0.514,0-0.58-0.064-0.58-0.773
		v-2.965c0.387-0.58,0.773-0.902,1.289-0.902c0.322,0,0.516,0.129,0.645,0.387s0.193,0.58,0.193,1.031v2.449
		c0,0.709-0.129,0.773-0.58,0.773v0.387h2.451v-0.387c-0.516,0-0.58-0.064-0.58-0.773V130.705L112.977,130.705z"/>
	<path style="fill-rule:evenodd;clip-rule:evenodd;" d="M119.615,131.672c0-0.902-0.258-1.611-0.709-2.127s-1.096-0.773-1.869-0.773
		c-0.838,0-1.482,0.258-1.934,0.707c-0.516,0.518-0.838,1.227-0.838,2.129c0,0.967,0.258,1.676,0.709,2.127
		c0.516,0.58,1.289,0.838,2.191,0.838c0.645,0,1.16-0.193,1.547-0.451s0.709-0.516,0.902-0.902l-0.387-0.193
		c-0.193,0.258-0.451,0.516-0.709,0.709c-0.322,0.193-0.709,0.322-1.096,0.322c-0.58,0-1.033-0.258-1.354-0.709
		c-0.322-0.451-0.389-1.031-0.389-1.74L119.615,131.672L119.615,131.672z M115.682,131.156c0-0.645,0.131-1.16,0.389-1.418
		c0.258-0.322,0.58-0.518,0.967-0.518s0.709,0.195,0.902,0.453c0.193,0.387,0.322,0.967,0.322,1.482H115.682L115.682,131.156z"/>
	<path style="fill-rule:evenodd;clip-rule:evenodd;" d="M126.189,130.641c0-0.709-0.191-1.162-0.516-1.42
		c-0.256-0.256-0.709-0.385-1.289-0.385c-0.709,0-1.418,0.385-1.934,0.967l0,0l-0.064-0.902l-0.193-0.129
		c-0.516,0.322-1.16,0.449-1.74,0.58v0.322c0.645,0,0.709,0.129,0.709,0.838v2.643c0,0.773-0.064,0.902-0.709,0.902v0.387h2.578
		v-0.387c-0.58,0-0.58-0.064-0.58-0.838v-2.771c0.451-0.645,1.031-1.031,1.482-1.031c0.322,0,0.516,0.062,0.645,0.258
		c0.258,0.193,0.322,0.58,0.322,1.031v2.514c0,0.773-0.064,0.838-0.58,0.838v0.387h2.451v-0.387c-0.518,0-0.582-0.129-0.582-0.838
		V130.641L126.189,130.641z"/>
	<path style="fill-rule:evenodd;clip-rule:evenodd;" d="M127.287,129.416h0.773v3.609c0,1.225,0.838,1.547,1.676,1.547
		c0.709,0,1.16-0.193,1.611-0.516l-0.193-0.387c-0.322,0.193-0.645,0.322-1.031,0.322c-0.451,0-0.709-0.258-0.709-0.967v-3.609
		h1.611v-0.451h-1.611v-1.676h-0.451c-0.322,1.16-0.709,1.676-1.676,1.74V129.416L127.287,129.416z"/>
	<path style="fill-rule:evenodd;clip-rule:evenodd;" d="M136.504,132.896c0,0.967-0.064,1.031-0.967,1.031v0.516h3.352v-0.516
		c-0.902,0-0.967-0.064-0.967-1.031v-6.447c0-0.965,0.064-1.031,0.967-1.031v-0.516h-3.287v0.516c0.838,0,0.902,0.066,0.902,1.031
		V132.896L136.504,132.896z"/>
	<path style="fill-rule:evenodd;clip-rule:evenodd;" d="M145.336,130.641c0-0.709-0.193-1.162-0.451-1.42
		c-0.322-0.256-0.773-0.385-1.354-0.385c-0.709,0-1.354,0.385-1.934,0.967l0,0l-0.064-0.902l-0.129-0.129
		c-0.582,0.322-1.225,0.449-1.807,0.58v0.322c0.646,0,0.711,0.129,0.711,0.838v2.643c0,0.773-0.064,0.902-0.711,0.902v0.387h2.58
		v-0.387c-0.516,0-0.58-0.064-0.58-0.838v-2.771c0.516-0.645,1.031-1.031,1.482-1.031c0.322,0,0.516,0.062,0.709,0.258
		c0.193,0.193,0.258,0.58,0.258,1.031v2.514c0,0.773,0,0.838-0.58,0.838v0.387h2.514v-0.387c-0.58,0-0.645-0.129-0.645-0.838
		V130.641L145.336,130.641z"/>
	<path style="fill-rule:evenodd;clip-rule:evenodd;" d="M150.492,130.318c-0.129-0.58-0.193-0.902-0.193-1.225
		c-0.387-0.193-0.902-0.258-1.547-0.258c-0.709,0-1.225,0.129-1.547,0.385c-0.451,0.258-0.58,0.646-0.58,1.033
		s0.129,0.645,0.322,0.902c0.322,0.322,0.709,0.516,1.16,0.838c0.58,0.322,0.902,0.451,1.096,0.645s0.258,0.387,0.258,0.58
		c0,0.258-0.129,0.516-0.322,0.645c-0.193,0.193-0.451,0.258-0.838,0.258c-0.709,0-1.16-0.258-1.418-1.289l-0.451,0.064
		c0.129,0.516,0.193,0.902,0.258,1.418c0.451,0.193,1.031,0.322,1.805,0.322s1.354-0.193,1.74-0.516
		c0.387-0.258,0.58-0.709,0.58-1.16c0-0.387-0.193-0.709-0.451-0.967c-0.193-0.258-0.516-0.516-0.902-0.709
		c-0.322-0.193-0.773-0.387-1.16-0.58c-0.258-0.193-0.451-0.451-0.451-0.709c0-0.193,0.129-0.387,0.322-0.518
		c0.193-0.127,0.451-0.191,0.709-0.191c0.645,0,1.031,0.258,1.227,1.16L150.492,130.318L150.492,130.318z"/>
	<path style="fill-rule:evenodd;clip-rule:evenodd;" d="M151.395,129.416h0.838v3.609c0,1.225,0.775,1.547,1.611,1.547
		c0.711,0,1.227-0.193,1.678-0.516l-0.258-0.387c-0.322,0.193-0.645,0.322-0.969,0.322c-0.516,0-0.773-0.258-0.773-0.967v-3.609
		h1.678v-0.451h-1.678v-1.676h-0.387c-0.322,1.16-0.707,1.676-1.74,1.74V129.416L151.395,129.416z"/>
	<path style="fill-rule:evenodd;clip-rule:evenodd;" d="M157.391,126.516c-0.451,0-0.773,0.322-0.773,0.838s0.322,0.838,0.773,0.838
		c0.387,0,0.773-0.322,0.773-0.838S157.777,126.516,157.391,126.516L157.391,126.516L157.391,126.516z M158.1,128.9l-0.193-0.064
		c-0.645,0.258-1.225,0.451-1.934,0.516v0.322c0.773,0,0.773,0.064,0.773,0.838v2.643c0,0.773,0,0.902-0.773,0.902v0.387h2.836
		v-0.387c-0.645,0-0.709-0.129-0.709-0.902V128.9L158.1,128.9z"/>
	<path style="fill-rule:evenodd;clip-rule:evenodd;" d="M159.389,129.416h0.773v3.609c0,1.225,0.773,1.547,1.676,1.547
		c0.709,0,1.16-0.193,1.611-0.516l-0.256-0.387c-0.324,0.193-0.58,0.322-0.969,0.322c-0.451,0-0.773-0.258-0.773-0.967v-3.609h1.676
		v-0.451h-1.676v-1.676h-0.387c-0.322,1.16-0.709,1.676-1.676,1.74V129.416L159.389,129.416z"/>
	<path style="fill-rule:evenodd;clip-rule:evenodd;" d="M170.477,134.057c-0.645,0-0.709-0.129-0.709-0.902V128.9l-0.193-0.129
		c-0.58,0.322-1.225,0.449-1.74,0.516v0.387c0.58,0,0.58,0.129,0.58,0.838l0.064,2.578c-0.451,0.516-0.967,0.838-1.549,0.838
		c-0.32,0-0.643-0.129-0.836-0.387s-0.258-0.645-0.258-1.225V128.9l-0.195-0.129c-0.58,0.322-1.225,0.516-1.805,0.58l0.064,0.322
		c0.58,0,0.646,0.129,0.646,0.838v1.998c0,0.773,0.191,1.354,0.514,1.676s0.84,0.387,1.355,0.387c0.902,0,1.547-0.387,1.998-0.838
		h0.064l0.064,0.838l0.129,0.064c0.258-0.064,0.58-0.129,0.902-0.129c0.258-0.064,0.58-0.064,0.838-0.064L170.477,134.057
		L170.477,134.057z"/>
	<path style="fill-rule:evenodd;clip-rule:evenodd;" d="M171.057,129.416h0.773v3.609c0,1.225,0.838,1.547,1.676,1.547
		c0.709,0,1.16-0.193,1.611-0.516l-0.258-0.387c-0.258,0.193-0.58,0.322-0.967,0.322c-0.451,0-0.709-0.258-0.709-0.967v-3.609h1.611
		v-0.451h-1.611v-1.676h-0.451c-0.322,1.16-0.709,1.676-1.676,1.74V129.416L171.057,129.416z"/>
	<path style="fill-rule:evenodd;clip-rule:evenodd;" d="M181.049,131.672c0-0.902-0.258-1.611-0.709-2.127
		c-0.453-0.516-1.098-0.773-1.869-0.773c-0.84,0-1.484,0.258-1.936,0.707c-0.516,0.518-0.838,1.227-0.838,2.129
		c0,0.967,0.258,1.676,0.709,2.127c0.516,0.58,1.289,0.838,2.191,0.838c0.645,0,1.162-0.193,1.547-0.451
		c0.389-0.258,0.711-0.516,0.904-0.902l-0.387-0.193c-0.193,0.258-0.451,0.516-0.709,0.709c-0.322,0.193-0.711,0.322-1.098,0.322
		c-0.58,0-1.031-0.258-1.354-0.709s-0.387-1.031-0.387-1.74L181.049,131.672L181.049,131.672z M177.115,131.156
		c0-0.645,0.129-1.16,0.387-1.418c0.26-0.322,0.58-0.518,0.904-0.518c0.449,0,0.709,0.195,0.965,0.453
		c0.195,0.387,0.324,0.967,0.324,1.482H177.115L177.115,131.156z"/>
	<path style="fill-rule:evenodd;clip-rule:evenodd;fill:#1879BF;" d="M42.647,83.389l-2.773-0.064v15.277l11.475-0.064h0.193
		c0,0,0.064,0,0.258-0.064c1.74-0.387,14.053-3.545,14.633-20.305c0,0,1.419-15.6-14.891-21.466l-2.965-0.773l-3.417-0.581H15.895
		v61.498h19.983V72.624l7.413,0.064c0,0,0.387,0.064,0.645,0.193c1.611,0.774,6.381,6.704-0.516,10.249
		c-0.129,0.065-0.258,0.13-0.387,0.194L42.647,83.389L42.647,83.389z"/>
	<polygon style="fill-rule:evenodd;clip-rule:evenodd;fill:#1879BF;" points="70.043,55.348 83.516,55.348 70.108,75.783 
		70.043,55.348 	"/>
	<polygon style="fill-rule:evenodd;clip-rule:evenodd;fill:#1879BF;" points="87.577,92.478 87.577,116.846 72.042,116.846 
		87.577,92.478 	"/>
	<polygon style="fill-rule:evenodd;clip-rule:evenodd;fill:#1879BF;" points="123.289,92.478 123.289,116.846 107.496,116.846 
		123.289,92.478 	"/>
	<polygon style="fill-rule:evenodd;clip-rule:evenodd;fill:#1879BF;" points="110.074,55.348 110.074,72.237 121.42,55.348 
		110.074,55.348 	"/>
	<polygon style="fill-rule:evenodd;clip-rule:evenodd;fill:#1879BF;" points="146.818,116.846 168.607,116.846 168.607,55.348 
		146.818,55.348 146.818,116.846 	"/>
	<polygon style="fill-rule:evenodd;clip-rule:evenodd;fill:#1879BF;" points="171.121,111.688 171.121,112.332 172.861,112.332 
		172.861,116.846 173.57,116.846 173.57,112.332 175.311,112.332 175.311,111.688 171.121,111.688 	"/>
	<polygon style="fill-rule:evenodd;clip-rule:evenodd;fill:#1879BF;" points="175.955,111.688 175.955,116.846 176.6,116.846 
		176.6,112.525 178.018,116.846 178.729,116.846 180.211,112.525 180.211,116.846 180.855,116.846 180.855,111.688 179.887,111.688 
		178.406,116.072 176.922,111.688 175.955,111.688 	"/>
</g>
</svg>
